HIERARCHY
ROOT Hips
{
 OFFSET 0.000000 0.000000 0.000000
 CHANNELS 6 Xposition Yposition Zposition Yrotation Xrotation Zrotation
 JOINT Chest
 {
  OFFSET 0.000000 9.588913 -0.003946
  CHANNELS 3 Yrotation Xrotation Zrotation
  JOINT Chest2
  {
   OFFSET 0.000000 9.541882 0.008053
   CHANNELS 3 Yrotation Xrotation Zrotation
   JOINT Chest3
   {
    OFFSET 0.000000 9.501360 0.000000
    CHANNELS 3 Yrotation Xrotation Zrotation
    JOINT Chest4
    {
     OFFSET 0.000000 9.491660 0.000000
     CHANNELS 3 Yrotation Xrotation Zrotation
     JOINT Neck
     {
      OFFSET 0.000000 14.331917 0.000000
      CHANNELS 3 Yrotation Xrotation Zrotation
      JOINT Head
      {
       OFFSET 0.000000 8.884799 0.017034
       CHANNELS 3 Yrotation Xrotation Zrotation
       End Site
       {
        OFFSET 0.000000 16.896195 0.008993
       }
      }
     }
     JOINT RightCollar
     {
      OFFSET -2.923010 9.499495 0.000000
      CHANNELS 3 Yrotation Xrotation Zrotation
      JOINT RightShoulder
      {
       OFFSET -13.795216 0.000000 0.000000
       CHANNELS 3 Yrotation Xrotation Zrotation
       JOINT RightElbow
       {
        OFFSET -30.272209 0.000000 0.000000
        CHANNELS 3 Yrotation Xrotation Zrotation
        JOINT RightWrist
        {
         OFFSET -24.478199 0.000000 0.000000
         CHANNELS 3 Yrotation Xrotation Zrotation
         End Site
         {
          OFFSET -18.090752 0.000000 0.000000
         }
        }
       }
      }
     }
     JOINT LeftCollar
     {
      OFFSET 2.923010 9.499495 0.000000
      CHANNELS 3 Yrotation Xrotation Zrotation
      JOINT LeftShoulder
      {
       OFFSET 13.795216 0.000000 0.000000
       CHANNELS 3 Yrotation Xrotation Zrotation
       JOINT LeftElbow
       {
        OFFSET 30.272209 0.000000 0.000000
        CHANNELS 3 Yrotation Xrotation Zrotation
        JOINT LeftWrist
        {
         OFFSET 24.478199 0.000000 0.000000
         CHANNELS 3 Yrotation Xrotation Zrotation
         End Site
         {
          OFFSET 18.090752 0.000000 0.000000
         }
        }
       }
      }
     }
    }
   }
  }
 }
 JOINT RightHip
 {
  OFFSET -7.826875 0.019532 0.001973
  CHANNELS 3 Yrotation Xrotation Zrotation
  JOINT RightKnee
  {
   OFFSET 0.000000 -40.546152 -0.001885
   CHANNELS 3 Yrotation Xrotation Zrotation
   JOINT RightAnkle
   {
    OFFSET 0.000000 -39.417092 -0.003189
    CHANNELS 3 Yrotation Xrotation Zrotation
    JOINT RightToe
    {
     OFFSET 0.000000 -7.579396 17.243563
     CHANNELS 3 Yrotation Xrotation Zrotation
     End Site
     {
      OFFSET 0.000000 -1.500329 6.694466
     }
    }
   }
  }
 }
 JOINT LeftHip
 {
  OFFSET 7.826875 0.019532 0.001973
  CHANNELS 3 Yrotation Xrotation Zrotation
  JOINT LeftKnee
  {
   OFFSET 0.000000 -40.546152 -0.001885
   CHANNELS 3 Yrotation Xrotation Zrotation
   JOINT LeftAnkle
   {
    OFFSET 0.000000 -39.417092 -0.003189
    CHANNELS 3 Yrotation Xrotation Zrotation
    JOINT LeftToe
    {
     OFFSET 0.000000 -7.579396 17.243563
     CHANNELS 3 Yrotation Xrotation Zrotation
     End Site
     {
      OFFSET 0.000000 -1.500329 6.694466
     }
    }
   }
  }
 }
}
MOTION
Frames: 10
Frame Time: 0.008333
0.000000 87.345680 0.000000 0.000000 -5.767889 0.000000 0.000000 11.653876 0.000000 0.000000 -5.885988 0.000000 0.000000 -0.000000 0.000000 0.000000 -0.000000 0.000000 0.000000 12.528808 0.000000 0.000000 0.711711 0.000000 0.000000 -0.000000 0.000000 0.000000 -0.000000 0.000000 2.309063 -0.000000 0.000000 -2.309063 -0.000000 -0.000000 0.000000 -0.000000 0.000000 0.000000 0.000000 0.000000 -2.309063 0.000000 0.000000 2.309063 -0.000000 0.000000 0.000000 8.520374 0.000000 0.000000 1.905768 0.000000 -0.000000 -4.658254 0.000000 0.000000 -0.000000 0.000000 0.000000 8.520374 0.000000 0.000000 1.905768 0.000000 -0.000000 -4.658254 0.000000 0.000000 -0.000000 0.000000
26.870506 88.321371 -3.590846 37.370186 -6.060644 0.910044 3.461157 3.139355 0.147789 1.952207 1.810762 0.071377 2.440916 2.262990 0.098876 1.952207 1.810762 0.071377 6.721403 24.376546 0.597022 7.237484 0.892516 -0.884796 -5.265902 2.845768 -1.564549 0.897619 -2.018737 89.245108 2.861549 -13.792921 0.546518 -0.208135 -21.895945 2.180393 -3.412681 3.094714 1.419672 2.361723 -5.229852 -90.377389 -2.409820 3.017373 -0.216106 0.709934 2.492113 0.549995 -13.563700 10.715180 -11.504654 20.191769 -1.465029 -3.330248 18.482229 -8.124910 4.880305 -0.029714 -0.030863 -0.009729 16.137120 7.628884 10.095581 8.271391 0.272159 -0.358313 10.070626 -1.055640 -7.203532 0.008901 0.057217 -0.010236
26.872351 88.319806 -3.586348 37.370838 -6.061361 0.899194 3.456396 3.140233 0.146992 1.949773 1.810660 0.070929 2.437871 2.262865 0.098304 1.949773 1.810660 0.070929 6.717149 24.359512 0.593424 7.233127 0.871393 -0.887855 -5.264135 2.852795 -1.560226 0.865548 -2.027060 89.251790 2.883113 -13.801645 0.547721 -0.194285 -21.898484 2.172391 -3.408927 3.090057 1.416950 2.348178 -5.235689 -90.382735 -2.417692 3.037151 -0.201902 0.728994 2.512626 0.532664 -13.551518 10.722434 -11.493857 20.187481 -1.465507 -3.331157 18.488282 -8.130598 4.879504 -0.028308 -0.029975 -0.010334 16.140764 7.642054 10.109690 8.283785 0.251233 -0.364115 10.056313 -1.054050 -7.198398 0.009432 0.058748 -0.010220
26.874826 88.318312 -3.580044 37.372317 -6.070069 0.885320 3.451482 3.143504 0.148967 1.948561 1.810781 0.069619 2.436350 2.263024 0.096660 1.948561 1.810781 0.069619 6.712711 24.345062 0.593109 7.227852 0.853343 -0.887259 -5.264700 2.862091 -1.550853 0.837262 -2.031198 89.259342 2.902399 -13.803248 0.555933 -0.186152 -21.898894 2.169788 -3.407677 3.090390 1.416849 2.334032 -5.242318 -90.387672 -2.424497 3.056483 -0.188342 0.742649 2.531417 0.519029 -13.542333 10.735418 -11.485907 20.184626 -1.465667 -3.333256 18.530458 -8.139422 4.872703 -0.016129 -0.031482 -0.005285 16.143143 7.664444 10.131425 8.298931 0.229693 -0.370283 10.032856 -1.052617 -7.198908 0.008622 0.058669 -0.007989
26.877846 88.316896 -3.573562 37.372897 -6.080238 0.874548 3.448510 3.146106 0.147167 1.947882 1.810887 0.067697 2.435491 2.263167 0.094256 1.947882 1.810887 0.067697 6.709143 24.332658 0.594735 7.223146 0.837826 -0.884722 -5.265875 2.872995 -1.537152 0.819906 -2.033159 89.266111 2.919787 -13.801020 0.568441 -0.186007 -21.897750 2.175760 -3.408736 3.094151 1.420754 2.320450 -5.248399 -90.393015 -2.433595 3.072806 -0.176802 0.753715 2.547295 0.507792 -13.537290 10.749843 -11.478819 20.184347 -1.462807 -3.333896 18.544042 -8.147324 4.868660 -0.010344 -0.031989 -0.003857 16.143541 7.690843 10.147375 8.315045 0.204822 -0.376237 10.024173 -1.046553 -7.198745 0.008490 0.057552 -0.004533
26.880429 88.315515 -3.567709 37.371736 -6.085700 0.865647 3.446649 3.146936 0.143080 1.946941 1.810715 0.066571 2.434309 2.262959 0.092842 1.946941 1.810715 0.066571 6.706712 24.321839 0.594566 7.220185 0.824392 -0.884406 -5.264147 2.882095 -1.524600 0.814463 -2.036059 89.269200 2.932426 -13.794351 0.584664 -0.193744 -21.893704 2.187290 -3.407822 3.095170 1.422211 2.308974 -5.253207 -90.396152 -2.443185 3.084160 -0.168892 0.764956 2.560629 0.496279 -13.534910 10.760978 -11.468801 20.185288 -1.458904 -3.332015 18.518663 -8.151437 4.868995 -0.013135 -0.030752 -0.007297 16.143663 7.715881 10.156353 8.332724 0.172919 -0.379895 10.026254 -1.034495 -7.197658 0.008953 0.056603 -0.000989
26.882071 88.314197 -3.562079 37.368166 -6.087335 0.855356 3.443492 3.147753 0.141362 1.945170 1.810587 0.066260 2.432093 2.262800 0.092444 1.945170 1.810587 0.066260 6.706476 24.312478 0.591718 7.220364 0.812992 -0.887519 -5.257381 2.886839 -1.514818 0.819474 -2.040656 89.269730 2.938832 -13.779971 0.602608 -0.207840 -21.885660 2.201865 -3.399945 3.090623 1.417716 2.301893 -5.256466 -90.395384 -2.451393 3.092125 -0.166500 0.777100 2.569829 0.483103 -13.531674 10.768796 -11.456463 20.185281 -1.457284 -3.328229 18.490253 -8.152523 4.868590 -0.014710 -0.029282 -0.009997 16.146609 7.737365 10.164577 8.353297 0.139009 -0.380256 10.023930 -1.021500 -7.197731 0.009234 0.056544 0.001335
26.883175 88.312947 -3.556874 37.362321 -6.086034 0.846959 3.439317 3.148236 0.140304 1.942828 1.810692 0.065740 2.429163 2.262935 0.091783 1.942828 1.810692 0.065740 6.707813 24.304626 0.587150 7.222758 0.803614 -0.892870 -5.248112 2.888459 -1.508868 0.833404 -2.046619 89.274273 2.942652 -13.755078 0.619017 -0.226195 -21.874260 2.218246 -3.386687 3.082530 1.410072 2.298969 -5.256651 -90.391938 -2.459603 3.097342 -0.169303 0.788716 2.574683 0.470514 -13.526273 10.772562 -11.444537 20.183828 -1.455238 -3.324104 18.461585 -8.153582 4.867639 -0.015583 -0.027040 -0.011839 16.152015 7.755255 10.172967 8.373989 0.108399 -0.381611 10.010422 -1.011053 -7.198286 0.008449 0.056109 0.002178
26.883997 88.311755 -3.551991 37.357068 -6.083406 0.841799 3.435686 3.147064 0.137970 1.940306 1.810765 0.064846 2.426006 2.263032 0.090653 1.940306 1.810765 0.064846 6.709017 24.298765 0.582104 7.225164 0.796672 -0.898705 -5.238877 2.891418 -1.507085 0.852837 -2.054586 89.286031 2.943929 -13.721253 0.633660 -0.244317 -21.862121 2.231786 -3.372721 3.076848 1.403235 2.299308 -5.255825 -90.389593 -2.468337 3.100019 -0.173463 0.797511 2.578898 0.460085 -13.520520 10.774246 -11.433129 20.181735 -1.450505 -3.320268 18.423140 -8.156145 4.866784 -0.019493 -0.023489 -0.014254 16.155509 7.772203 10.179856 8.389709 0.079752 -0.384367 9.993842 -1.002345 -7.199775 0.006936 0.055155 0.002766
26.884148 88.310643 -3.546275 37.356288 -6.083685 0.834248 3.431536 3.146818 0.137956 1.937633 1.810554 0.064079 2.422660 2.262773 0.089680 1.937633 1.810554 0.064079 6.709661 24.294554 0.577688 7.226831 0.791687 -0.903715 -5.230605 2.896808 -1.505393 0.874051 -2.062814 89.301555 2.941462 -13.681878 0.648268 -0.261352 -21.849964 2.242461 -3.359658 3.076598 1.398839 2.301454 -5.256013 -90.392264 -2.477607 3.101478 -0.175798 0.804481 2.584116 0.452254 -13.517476 10.777312 -11.421874 20.179706 -1.444006 -3.316275 18.407947 -8.162190 4.860585 -0.018302 -0.020777 -0.013363 16.153026 7.789246 10.185100 8.400795 0.052978 -0.383173 9.996047 -0.994427 -7.201216 0.007158 0.056274 0.003550
